<?xml version="1.0" standalone="no"?>
<!DOCTYPE svg PUBLIC "-//W3C//DTD SVG 20010904//EN"
 "http://www.w3.org/TR/2001/REC-SVG-20010904/DTD/svg10.dtd">
<svg version="1.0" xmlns="http://www.w3.org/2000/svg"
 width="60.000000pt" height="60.000000pt" viewBox="0 0 60.000000 60.000000"
 preserveAspectRatio="xMidYMid meet">

<g transform="translate(0.000000,60.000000) scale(0.100000,-0.100000)"
fill="#387FF9" stroke="none">
<path d="M220 527 c-49 -16 -133 -102 -148 -153 -28 -94 -8 -169 63 -239 70
-71 145 -91 239 -63 58 17 138 99 155 159 15 54 12 84 -8 84 -9 0 -19 -19 -26
-51 -24 -105 -90 -159 -196 -159 -54 0 -72 5 -106 27 -63 41 -88 90 -88 169 0
54 5 72 27 106 41 63 90 88 168 88 47 0 74 -6 97 -20 l33 -19 -27 -28 -27 -28
62 0 62 0 0 62 0 62 -22 -21 c-21 -21 -22 -21 -47 -4 -58 40 -138 51 -211 28z"/>
</g>
</svg>
